<svg xmlns="http://www.w3.org/2000/svg" viewBox="0 0 413 387" width="413" height="387" role="img" aria-label="별바다다이브 세로형 로고"><title>별바다다이브 세로형 로고</title><g transform="translate(70.65,10.00) scale(0.23194) translate(-90.00,-62.00)"><path d="M339.0,1168.6C318.4,1162.9 305.0,1144.1 306.3,1122.6C307.0,1109.8 322.3,1059.2 326.7,1055.0C330.4,1051.4 392.5,1011.9 420.5,995.3C502.9,946.3 542.3,931.0 670.0,897.9C804.3,863.1 858.7,846.2 932.6,816.5C956.1,807.0 955.9,807.0 958.0,816.4C958.6,819.1 964.2,838.4 970.6,859.4C988.1,917.3 997.6,948.9 1003.0,966.5C1026.5,1043.8 1046.4,1110.5 1047.6,1116.2C1054.5,1149.3 1022.5,1178.2 990.2,1168.1C981.7,1165.5 984.5,1167.4 870.0,1087.7C813.1,1048.1 762.9,1013.2 758.5,1010.1C754.1,1007.1 746.0,1001.4 740.5,997.5C696.3,966.0 659.6,965.9 614.5,997.2C602.8,1005.3 414.9,1136.0 392.0,1151.9C374.9,1163.8 369.9,1166.7 362.5,1168.6C356.4,1170.3 345.0,1170.2 339.0,1168.6ZM220.1,615.5C216.7,613.0 196.1,597.4 174.2,580.8C152.4,564.2 131.8,548.6 128.5,546.1C115.3,536.1 109.4,528.5 105.8,516.7C98.2,491.5 115.6,464.2 142.0,460.0C147.9,459.1 197.8,457.9 350.0,455.0C445.8,453.1 458.9,452.5 470.3,449.6C491.8,443.9 511.6,430.3 523.2,413.2C530.9,401.9 533.9,394.6 549.1,351.0C556.8,328.7 574.2,278.8 587.7,240.0C601.1,201.2 617.0,155.5 622.9,138.5C628.9,121.4 635.2,104.6 637.0,101.1C654.0,67.4 701.0,67.4 717.7,101.1C719.4,104.6 730.4,134.9 742.0,168.5C753.6,202.1 768.1,243.7 774.2,261.0C780.2,278.3 793.0,315.2 802.7,343.0C812.3,370.8 820.8,394.7 821.6,396.2C823.5,399.9 823.4,404.4 821.2,406.3C813.9,412.9 743.7,440.6 698.5,454.6C670.3,463.4 616.4,478.2 562.5,492.0C544.9,496.5 522.2,502.6 512.0,505.5C501.8,508.4 486.8,512.7 478.5,515.0C401.6,536.4 319.5,570.7 241.5,613.9C228.3,621.2 227.9,621.2 220.1,615.5Z" fill="#ff6600"/><path d="M365.0,923.6C365.0,922.3 367.0,914.5 369.5,906.3C388.6,842.8 395.9,819.8 397.6,817.9C398.6,816.7 407.4,811.9 417.0,807.3C471.2,781.2 526.8,762.0 610.0,740.6C727.5,710.5 770.7,698.0 824.0,678.8C930.8,640.3 1014.0,596.2 1114.5,524.6C1145.5,502.5 1150.7,498.5 1188.5,468.7C1200.7,459.0 1202.9,458.2 1212.2,459.9C1242.9,465.3 1259.9,500.4 1244.4,526.7C1241.9,531.0 1237.4,534.6 1190.0,571.0C1092.7,645.5 982.4,706.9 869.1,749.5C811.1,771.3 764.1,785.3 645.5,816.0C513.5,850.2 470.9,867.1 373.5,923.7C368.1,926.8 365.0,926.8 365.0,923.6ZM368.3,728.7C363.5,724.5 346.1,711.0 330.5,699.4C305.3,680.6 304.1,679.4 307.6,676.0C310.3,673.4 339.3,658.5 359.5,649.5C431.4,617.2 478.3,601.9 609.5,568.0C746.3,532.6 815.2,507.7 896.3,464.6C906.9,459.0 916.3,454.1 917.3,453.7C920.8,452.4 1054.8,455.6 1057.1,457.1C1059.6,458.6 1056.9,461.1 1039.4,473.2C964.6,525.3 883.3,566.8 793.5,599.0C747.0,615.7 702.5,628.7 615.5,651.0C506.8,678.9 453.6,696.4 393.3,724.1C373.8,733.1 373.3,733.2 368.3,728.7Z" fill="#0099ff"/></g><g transform="translate(20.00,347.84) scale(0.03516,-0.03516)"><path d="M1588.0 1636H1334.0V1404H998.0V1558H746.0V1346H388.0V1558H132.0V752H998.0V882H1334.0V700H1588.0ZM1588.0 632H376.0V436H1334.0V332H378.0V-164H1642.0V36H634.0V146H1588.0ZM388.0 952V1152H746.0V952ZM998.0 1074V1214H1334.0V1074ZM3260.0 1636H3004.0V-184H3260.0V742H3528.0V956H3260.0ZM2136.0 1492H1882.0V238H2768.0V1492H2514.0V1048H2136.0ZM2136.0 444V850H2514.0V444ZM5030.0 1636H4774.0V-188H5030.0V752H5298.0V960H5030.0ZM4520.0 1468H3666.0V254H3820.0C4142.0 252 4390.0 260 4672.0 308L4644.0 522C4402.0 479 4184.0 467 3920.0 464V1262H4520.0ZM6800.0 1636H6544.0V-188H6800.0V752H7068.0V960H6800.0ZM6290.0 1468H5436.0V254H5590.0C5912.0 252 6160.0 260 6442.0 308L6414.0 522C6172.0 479 5954.0 467 5690.0 464V1262H6290.0ZM8658.0 1636H8400.0V-188H8658.0ZM7670.0 1508C7390.0 1508 7186.0 1256 7188.0 860C7186.0 460 7390.0 210 7670.0 210C7944.0 210 8148.0 460 8148.0 860C8148.0 1256 7944.0 1508 7670.0 1508ZM7670.0 1278C7808.0 1278 7902.0 1130 7902.0 860C7902.0 588 7808.0 442 7670.0 442C7528.0 442 7434.0 588 7434.0 860C7434.0 1130 7528.0 1278 7670.0 1278ZM10570.0 244H8904.0V36H10570.0ZM9336.0 1520H9080.0V548H10384.0V1520H10130.0V1218H9336.0ZM9336.0 748V1020H10130.0V748Z" fill="#0B2545"/></g><g transform="translate(43.86,372.80) scale(0.01800,-0.01800)"><path d="M94.0 0V700H422.0Q548.0 700 614.0 650.5Q680.0 601 680.0 518Q680.0 464 655.0 424.5Q630.0 385 590.0 364Q646.0 346 681.0 302.0Q716.0 258 716.0 190Q716.0 100 646.5 50.0Q577.0 0 442.0 0ZM224.0 102H434.0Q507.0 102 546.0 126.0Q585.0 150 585.0 203Q585.0 255 546.0 279.5Q507.0 304 434.0 304H224.0ZM224.0 405H408.0Q476.0 405 512.5 429.0Q549.0 453 549.0 501Q549.0 550 512.5 574.0Q476.0 598 408.0 598H224.0ZM1727.0 0V246L1452.0 700H1591.0L1796.0 359L2003.0 700H2131.0L1857.0 246V0ZM3217.0 -10Q3073.0 -10 2991.5 71.0Q2910.0 152 2910.0 305V700H3040.0V310Q3040.0 202 3086.5 153.0Q3133.0 104 3218.0 104Q3303.0 104 3349.0 153.0Q3395.0 202 3395.0 310V700H3523.0V305Q3523.0 152 3441.5 71.0Q3360.0 -10 3217.0 -10ZM4405.0 0V700H4535.0V110H4901.0V0ZM5704.0 0V700H6032.0Q6158.0 700 6224.0 650.5Q6290.0 601 6290.0 518Q6290.0 464 6265.0 424.5Q6240.0 385 6200.0 364Q6256.0 346 6291.0 302.0Q6326.0 258 6326.0 190Q6326.0 100 6256.5 50.0Q6187.0 0 6052.0 0ZM5834.0 102H6044.0Q6117.0 102 6156.0 126.0Q6195.0 150 6195.0 203Q6195.0 255 6156.0 279.5Q6117.0 304 6044.0 304H5834.0ZM5834.0 405H6018.0Q6086.0 405 6122.5 429.0Q6159.0 453 6159.0 501Q6159.0 550 6122.5 574.0Q6086.0 598 6018.0 598H5834.0ZM7066.0 0 7381.0 700H7509.0L7825.0 0H7689.0L7619.0 162H7269.0L7200.0 0ZM7313.0 264H7575.0L7444.0 570ZM8614.0 0V700H8920.0Q9034.0 700 9120.0 656.5Q9206.0 613 9254.0 534.0Q9302.0 455 9302.0 350Q9302.0 245 9254.0 166.0Q9206.0 87 9120.0 43.5Q9034.0 0 8920.0 0ZM8744.0 110H8914.0Q8992.0 110 9050.0 139.5Q9108.0 169 9139.5 223.0Q9171.0 277 9171.0 350Q9171.0 423 9139.5 477.0Q9108.0 531 9050.0 560.5Q8992.0 590 8914.0 590H8744.0ZM10041.0 0 10356.0 700H10484.0L10800.0 0H10664.0L10594.0 162H10244.0L10175.0 0ZM10288.0 264H10550.0L10419.0 570ZM13541.0 0V700H13847.0Q13961.0 700 14047.0 656.5Q14133.0 613 14181.0 534.0Q14229.0 455 14229.0 350Q14229.0 245 14181.0 166.0Q14133.0 87 14047.0 43.5Q13961.0 0 13847.0 0ZM13671.0 110H13841.0Q13919.0 110 13977.0 139.5Q14035.0 169 14066.5 223.0Q14098.0 277 14098.0 350Q14098.0 423 14066.5 477.0Q14035.0 531 13977.0 560.5Q13919.0 590 13841.0 590H13671.0ZM15067.0 0V700H15197.0V0ZM16293.0 0 15987.0 700H16128.0L16361.0 161L16596.0 700H16726.0L16421.0 0ZM17515.0 0V700H18026.0V591H17645.0V409H17983.0V302H17645.0V109H18040.0V0Z" fill="#5E6B7A"/></g></svg>
